<svg id="Layer_1" style="enable-background:new 0 0 512 512;" version="1.1" viewBox="0 0 512 512" xml:space="preserve" xmlns="http://www.w3.org/2000/svg" xmlns:xlink="http://www.w3.org/1999/xlink">
  <g>
    <path d="M438.6,330.6c-8.2-12.7-21,0.5-30.2,4.8c-80.8,43.7-176.6,50.6-262.9,19c-19.8-7.3-38.7-16.5-56.7-27.6
    c-5-3.3-11.7-1.9-15,3.1c-0.1,0.2-0.3,0.4-0.4,0.6L40,388.6c-3.1,5.1-1.5,11.8,3.7,14.8c0,0,0.1,0,0.1,0.1
    c17.7,10.8,36.1,20.3,55.3,28.2v50.8c-1,16.2,11.4,30.2,27.6,31.1c16.2,1,30.2-11.4,31.1-27.6c0.1-1.2,0.1-2.4,0-3.6v-31.5
    c19.8,5.1,40,8.7,60.3,10.8c-3.1,13.2,5.1,26.4,18.3,29.5s26.4-5.1,29.5-18.3c0.7-3.1,0.8-6.4,0.3-9.6
    c71.4-1.6,141.1-22.1,202-59.4c5.2-3,6.9-9.6,3.9-14.8c0,0,0-0.1-0.1-0.1L438.6,330.6z" fill="#9A4444"/>
    <path d="M428.5,284.6c-0.1-0.5-0.4-1-0.6-1.4c-3.9-7.1-12.8-9.6-19.8-5.7c-0.2,0.1-0.3,0.2-0.5,0.3c-10.9,6.6-25,3.2-31.7-7.7
    c-2.2-3.7-3.4-7.9-3.4-12.1c0.1-8.4,4.7-16.1,12-20.1c5.2-2.8,8.2-8.6,7.5-14.5c-0.2-2-0.9-4-2.1-5.7L268.6,7.2
    C266,2.8,261.1,0,255.9,0c-5,0.2-9.5,2.9-12,7.2L163.2,146c-4.1,6.8-1.8,15.7,5,19.8c15.6,9,21,28.9,12.1,44.5
    c-9,15.6-28.9,21-44.5,12.1c-6.9-3.6-15.4-1.2-19.4,5.5l-32.3,55.3c-1.8,3.2-0.8,7.2,2.4,9c0.4,0.3,0.9,0.5,1.4,0.6
    c50.8,31.6,107.2,53.2,168,52.2c61,1,117.8-20.7,168.1-52.2C427.6,291.8,429.5,288.1,428.5,284.6z M189,314.6
    c-3.1,0-6-0.5-8.8-1.4c-0.1,0-0.1-0.1-0.2-0.1c-0.3-0.1-0.5-0.2-0.8-0.3c-9.5-3.4-16.8-11.8-18.3-22.5
    c-0.8-5.3,0-10.4,2-15c4.3-10.2,14.4-17.4,26.2-17.4c15.7,0,28.3,12.7,28.3,28.3S204.7,314.6,189,314.6z M252.3,175
    c-15.7,0-28.3-12.7-28.3-28.3s12.7-28.3,28.3-28.3s28.3,12.7,28.3,28.3S268,175,252.3,175z M312.1,314.6
    c-15.7,0-28.3-12.7-28.3-28.3s12.7-28.3,28.3-28.3s28.3,12.7,28.3,28.3S327.7,314.6,312.1,314.6z" fill="#9A4444"/>
  </g>
</svg>
