<svg id="Layer_1" style="enable-background:new 0 0 512 512;" version="1.1" viewBox="0 0 512 512" xml:space="preserve" xmlns="http://www.w3.org/2000/svg" xmlns:xlink="http://www.w3.org/1999/xlink">
  <path d="M483.7,380.1l-60.6-104.8c-4-6.7-12.7-9-19.5-5.1c-3.5,2.2-7.5,3.4-11.6,3.4c-12.4-0.5-22.1-11-21.5-23.5  c0.3-7.6,4.5-14.6,11.1-18.4c6.8-3.8,9.3-12.4,5.5-19.2c0-0.1-0.1-0.1-0.1-0.2L268.3,6.9c-4.1-6.8-13-8.9-19.7-4.8  c-2,1.2-3.6,2.8-4.8,4.8l-77.9,135.2c-3.9,6.6-1.8,15.2,4.8,19.1c0.1,0.1,0.2,0.1,0.3,0.2c15.3,8.8,20.5,28.4,11.7,43.7  c-5.7,9.8-16.2,15.9-27.6,16c-9.7,1.2-17.3-8.2-26.7-5.8c-3.6,1-6.7,3.4-8.6,6.6l-48,83.1l-43.4,75.2c-3.8,6.5-1.7,14.8,4.6,18.9  c17.9,11.7,36.8,21.9,56.4,30.6v40.2c1.2,23.6,21.2,41.7,44.8,40.6c21.9-1.1,39.5-18.6,40.6-40.6v-13.1c10.5,2.1,21,3.8,31.4,5  c4.4,20.4,24.5,33.4,44.9,29c13.6-2.9,24.6-13.2,28.4-26.6c71.1-4,139.8-26.5,199.6-65.2C485.4,394.9,487.4,386.6,483.7,380.1  L483.7,380.1z M137.9,246.7c32,9.2,65.4-9.2,74.6-41.2c6.2-21.5,0-44.7-16.1-60.2L256,41.9l99.9,173c-19.6,20.1-19.3,52.2,0.8,71.9  c12.7,12.4,30.9,17.3,48.1,12.9l4.1,7.2c-94.1,56.6-211.8,56.6-305.9,0L137.9,246.7z M265.6,436.4c-10.5,0.5-14.9,9.6-13.8,19.2  c-0.5,5.1-5.1,8.8-10.3,8.3c-4.4-0.5-7.8-3.9-8.3-8.3v-6.6c0-7.3-5.6-13.4-12.9-14c-19.1-1.8-38-5-56.6-9.5  c-7.6-1.9-15.2,2.8-17.1,10.4c-0.3,1.1-0.4,2.2-0.4,3.3v30.6c0,8-6.5,14.5-14.5,14.5c-8,0-14.5-6.5-14.5-14.5v-49.6  c0-5.7-3.4-10.8-8.7-13c-16.9-7.1-33.3-15.3-49-24.7l29.6-50.7c102.9,61.7,231.4,61.7,334.2,0l29.2,50.7  C396.1,416.3,331.6,434.9,265.6,436.4z" fill="#9A4444"/>
  <path d="M256.2,203.1c11.6,0,21-9.4,21-21c0-11.6-9.4-21-21-21c-11.6,0-21,9.4-21,21C235.3,193.8,244.6,203.1,256.2,203.1z" fill="#9A4444"/>
  <path d="M200.3,318.7c11.6,0,21-9.4,21-21s-9.4-21-21-21c-11.6,0-21,9.4-21,21S188.7,318.7,200.3,318.7z" fill="#9A4444"/>
  <path d="M312.2,318.7c11.6,0,21-9.4,21-21s-9.4-21-21-21s-21,9.4-21,21S300.6,318.7,312.2,318.7z" fill="#9A4444"/>
</svg>
